<?xml version="1.0" encoding="utf-8"?>
<!-- Generator: Adobe Illustrator 27.5.0, SVG Export Plug-In . SVG Version: 6.00 Build 0)  -->
<svg version="1.1" xmlns="http://www.w3.org/2000/svg" xmlns:xlink="http://www.w3.org/1999/xlink" x="0px" y="0px"
	 viewBox="0 0 3710 3710" style="enable-background:new 0 0 3710 3710;" xml:space="preserve">
<g id="Background">
	<g>
		<g>
			<rect style="fill:#FFFFFF;" width="3710" height="3710"/>
		</g>
	</g>
</g>
<g id="Illustration">
	<g>
		<linearGradient id="SVGID_1_" gradientUnits="userSpaceOnUse" x1="3396.6157" y1="3591.511" x2="1345.3585" y2="1377.4554">
			<stop  offset="0" style="stop-color:#DAE3FE"/>
			<stop  offset="1" style="stop-color:#E9EFFD"/>
		</linearGradient>
		<path style="fill:url(#SVGID_1_);" d="M3110.76,2329.804c-281.858,658.809-1025.871,941.783-1608.817,893.536
			c-159.168-13.174-479.417-39.679-729.471-276.146c-480.211-454.12-406.254-1403.358,53.446-1962.217
			c59.2-71.969,468.972-554.157,1107.525-547.703c467.514,4.726,795.657,268.818,835.558,301.719
			c50.406,41.563,161.58,140.329,261.775,297.015C3266.198,1404.163,3286.892,1918.113,3110.76,2329.804z"/>
		<g>
			<g>
				<g style="opacity:0.3;">
					<path style="fill:#91B3FA;" d="M898.973,1031.151c-5.019-1.622-8.105-6.809-6.99-12.082c2.435-11.534,5.41-23.134,8.837-34.476
						c1.668-5.518,7.492-8.641,13.009-6.974c0.066,0.021,0.13,0.042,0.194,0.063c5.396,1.743,8.426,7.495,6.778,12.947
						c-3.257,10.776-6.081,21.795-8.396,32.751c-1.19,5.639-6.728,9.247-12.368,8.055
						C899.673,1031.36,899.319,1031.262,898.973,1031.151z M927.567,944.846c-0.388-0.125-0.774-0.276-1.155-0.45
						c-5.238-2.404-7.537-8.6-5.134-13.839c4.94-10.759,10.388-21.414,16.194-31.666c2.84-5.016,9.181-6.775,14.225-3.942
						c5.015,2.841,6.776,9.211,3.938,14.223c-5.518,9.746-10.693,19.867-15.385,30.094
						C938.02,944.124,932.531,946.45,927.567,944.846z M974.453,866.984c-1.105-0.357-2.17-0.907-3.145-1.654
						c-4.57-3.512-5.432-10.062-1.923-14.634c7.193-9.372,14.885-18.548,22.862-27.271c3.893-4.252,10.491-4.54,14.745-0.66
						c4.252,3.889,4.548,10.492,0.659,14.745c-7.576,8.284-14.878,16.995-21.71,25.896
						C983.18,867.002,978.534,868.303,974.453,866.984z M1037.586,801.548c-1.827-0.59-3.512-1.692-4.826-3.282
						c-3.671-4.442-3.045-11.021,1.397-14.693c9.116-7.529,18.666-14.755,28.384-21.477c4.739-3.271,11.237-2.088,14.52,2.648
						c3.278,4.739,2.092,11.24-2.648,14.52c-9.23,6.383-18.302,13.245-26.961,20.403
						C1044.597,802.023,1040.865,802.607,1037.586,801.548z M1113.723,751.833c-2.563-0.828-4.804-2.641-6.11-5.235
						c-2.595-5.148-0.524-11.424,4.623-14.015c10.531-5.306,21.441-10.238,32.42-14.65c5.346-2.154,11.426,0.436,13.576,5.788
						c2.149,5.347-0.442,11.425-5.791,13.578c-10.437,4.193-20.805,8.88-30.814,13.923
						C1119.074,752.508,1116.245,752.648,1113.723,751.833z M1198.957,720.202c-3.319-1.072-6.025-3.781-6.929-7.414
						c-1.39-5.595,2.015-11.254,7.608-12.647c11.463-2.851,23.193-5.247,34.86-7.114c5.694-0.911,11.044,2.965,11.955,8.657
						c0.912,5.688-2.964,11.042-8.654,11.954c-11.087,1.776-22.23,4.05-33.122,6.759
						C1202.714,720.885,1200.747,720.781,1198.957,720.202z M1570.489,814.141c-1.375-0.444-2.677-1.182-3.814-2.218
						c-8.287-7.553-17.016-14.846-25.944-21.672c-4.578-3.501-5.452-10.051-1.951-14.626c3.5-4.58,10.05-5.454,14.629-1.952
						c9.403,7.19,18.597,14.869,27.325,22.821c4.261,3.883,4.566,10.485,0.683,14.744
						C1578.572,814.363,1574.264,815.361,1570.489,814.141z M1289.022,708.254c-4.12-1.331-7.135-5.159-7.224-9.729
						c-0.112-5.764,4.468-10.526,10.23-10.639c11.811-0.232,23.776,0.048,35.563,0.832c5.748,0.409,10.105,5.352,9.722,11.105
						c-0.382,5.75-5.355,10.103-11.107,9.722c-11.193-0.746-22.555-1.012-33.771-0.793
						C1291.244,708.775,1290.094,708.601,1289.022,708.254z M1496.819,760.871c-0.655-0.212-1.301-0.489-1.924-0.84
						c-9.774-5.51-19.916-10.668-30.141-15.338c-5.243-2.397-7.552-8.588-5.158-13.829c2.396-5.241,8.592-7.578,13.829-5.158
						c10.758,4.916,21.431,10.344,31.716,16.138c5.021,2.831,6.798,9.197,3.968,14.216
						C1506.633,760.457,1501.443,762.365,1496.819,760.871z M1379.498,716.724c-5.012-1.619-8.097-6.794-6.995-12.062
						c1.181-5.642,6.71-9.258,12.353-8.081c11.551,2.417,23.153,5.365,34.481,8.768c0.071,0.018,0.143,0.042,0.213,0.064
						c5.388,1.741,8.417,7.48,6.783,12.928c-1.658,5.522-7.475,8.655-12.996,6.995c-10.762-3.229-21.782-6.028-32.757-8.323
						C1380.212,716.934,1379.849,716.838,1379.498,716.724z"/>
					<path style="fill:#91B3FA;" d="M1619.965,868.201c-1.955-0.632-3.746-1.844-5.086-3.605
						c-3.258-4.283-6.661-8.566-10.111-12.739c-3.674-4.439-3.054-11.02,1.386-14.692c4.439-3.676,11.025-3.061,14.693,1.389
						c3.631,4.386,7.209,8.893,10.639,13.398c3.49,4.585,2.603,11.136-1.981,14.624
						C1626.678,868.729,1623.107,869.216,1619.965,868.201z"/>
				</g>
				<g style="opacity:0.3;">
					<path style="fill:#91B3FA;" d="M1698.509,1176.528c-4.793-1.549-7.888-6.387-7.094-11.524
						c0.825-5.316,1.551-10.74,2.158-16.118c0.647-5.729,5.814-9.847,11.541-9.2c5.751,0.65,9.846,5.816,9.2,11.541
						c-0.641,5.662-1.405,11.374-2.271,16.972c-0.883,5.695-6.215,9.597-11.911,8.716
						C1699.572,1176.828,1699.03,1176.696,1698.509,1176.528z"/>
					<path style="fill:#91B3FA;" d="M1172.207,1501.516c-4.569-1.476-9.131-3.036-13.684-4.679
						c-5.421-1.957-8.231-7.938-6.276-13.359c1.955-5.422,7.969-8.243,13.358-6.278c10.507,3.79,21.144,7.145,31.739,10.003
						c5.567,1.512,8.859,7.228,7.359,12.792c-1.502,5.568-7.231,8.862-12.795,7.36
						C1185.354,1505.589,1178.726,1503.623,1172.207,1501.516z M1108.093,1474.644c-0.555-0.179-1.104-0.409-1.639-0.688
						c-10.319-5.395-20.524-11.288-30.329-17.516c-4.865-3.089-6.305-9.538-3.217-14.402c3.091-4.866,9.555-6.316,14.405-3.215
						c9.313,5.914,19.008,11.51,28.813,16.64c5.107,2.67,7.082,8.976,4.412,14.081
						C1118.146,1474.117,1112.843,1476.178,1108.093,1474.644z M1245.796,1517.948c-4.682-1.513-7.776-6.184-7.134-11.242
						c0.728-5.72,5.953-9.764,11.671-9.039c10.937,1.392,22.083,2.333,33.133,2.793c5.759,0.25,10.232,5.106,9.991,10.863
						c-0.242,5.761-5.106,10.234-10.865,9.993c-11.635-0.486-23.374-1.478-34.893-2.942
						C1247.041,1518.29,1246.405,1518.144,1245.796,1517.948z M1033.841,1424.693c-1.261-0.407-2.462-1.066-3.535-1.974
						c-8.873-7.524-17.531-15.518-25.733-23.759c-4.065-4.085-4.049-10.691,0.036-14.755c4.087-4.069,10.691-4.056,14.758,0.035
						c7.788,7.824,16.009,15.416,24.436,22.56c4.397,3.725,4.938,10.314,1.211,14.708
						C1042.197,1424.832,1037.745,1425.955,1033.841,1424.693z M1335.199,1519.332c-3.84-1.241-6.774-4.665-7.183-8.94
						c-0.55-5.738,3.657-10.835,9.396-11.384c10.969-1.048,22.049-2.583,32.933-4.558c5.671-1.03,11.104,2.731,12.132,8.406
						c1.028,5.67-2.734,11.099-8.404,12.128c-11.458,2.081-23.123,3.697-34.674,4.802
						C1337.938,1519.925,1336.514,1519.756,1335.199,1519.332z M1422.744,1501.064c-3.07-0.992-5.639-3.39-6.719-6.69
						c-1.79-5.479,1.2-11.372,6.68-13.162c10.507-3.434,20.992-7.35,31.162-11.639c5.308-2.248,11.428,0.24,13.672,5.558
						c2.24,5.312-0.249,11.431-5.56,13.673c-10.703,4.514-21.736,8.635-32.793,12.246
						C1427.01,1501.762,1424.769,1501.718,1422.744,1501.064z M1504.223,1464.146c-2.335-0.755-4.414-2.33-5.764-4.608
						c-2.94-4.956-1.304-11.359,3.654-14.298c9.517-5.643,18.898-11.745,27.886-18.146c4.693-3.342,11.207-2.252,14.554,2.449
						c3.341,4.696,2.247,11.209-2.449,14.554c-9.458,6.733-19.332,13.16-29.345,19.097
						C1510.078,1464.782,1506.974,1465.035,1504.223,1464.146z M1575.707,1410.34c-1.618-0.523-3.129-1.448-4.378-2.773
						c-3.953-4.195-3.756-10.797,0.439-14.75c8.049-7.583,15.862-15.593,23.226-23.812c3.846-4.292,10.451-4.652,14.736-0.812
						c4.294,3.846,4.656,10.445,0.809,14.737c-7.756,8.658-15.985,17.095-24.457,25.076
						C1583.21,1410.712,1579.211,1411.473,1575.707,1410.34z M1633.657,1342.128c-0.91-0.294-1.793-0.721-2.626-1.281
						c-4.779-3.219-6.044-9.707-2.823-14.484c6.162-9.148,12.016-18.677,17.398-28.334c2.807-5.035,9.177-6.829,14.196-4.033
						c5.035,2.805,6.841,9.164,4.034,14.199c-5.666,10.164-11.828,20.199-18.318,29.828
						C1642.859,1341.97,1637.97,1343.522,1633.657,1342.128z M1675.177,1262.905c-0.204-0.066-0.407-0.14-0.609-0.218
						c-5.365-2.102-8.012-8.158-5.908-13.523c2.968-7.575,5.737-15.33,8.234-23.057c0.904-2.797,1.773-5.6,2.612-8.401
						c1.654-5.523,7.47-8.66,12.991-7.005c5.623,1.564,8.658,7.467,7.006,12.987c-0.882,2.95-1.797,5.893-2.748,8.837
						c-2.626,8.127-5.541,16.288-8.664,24.255C1686.07,1261.943,1680.385,1264.588,1675.177,1262.905z"/>
					<path style="fill:#91B3FA;" d="M972.266,1359.415c-1.975-0.638-3.777-1.867-5.12-3.646c-3.4-4.513-6.768-9.183-10.012-13.881
						c-3.276-4.743-2.087-11.243,2.656-14.518c4.744-3.274,11.24-2.092,14.518,2.656c3.082,4.462,6.282,8.898,9.509,13.183
						c3.468,4.6,2.549,11.144-2.055,14.613C978.939,1359.948,975.388,1360.424,972.266,1359.415z"/>
				</g>
				<g>
					<path style="fill:#91B3FA;" d="M1022.884,1248.562c0.756,1.938,2.659,3.184,4.738,3.101l59.318-2.366
						c15.7,22.85,35.156,43.362,57.979,60.482l-4.825,59.13c-0.17,2.075,0.996,4.027,2.901,4.863l65.207,28.612
						c1.906,0.836,4.132,0.37,5.543-1.157l40.246-43.589c28.053,5.202,56.32,5.632,83.766,1.712l38.424,45.254
						c1.347,1.586,3.552,2.143,5.49,1.387l66.34-25.877c1.94-0.757,3.185-2.66,3.101-4.739l-2.365-59.318
						c22.85-15.699,43.362-35.156,60.482-57.979l59.132,4.825c2.074,0.169,4.027-0.996,4.863-2.901l28.612-65.208
						c0.836-1.905,0.371-4.132-1.158-5.543l-43.589-40.246c5.203-28.053,5.633-56.32,1.713-83.765l45.254-38.425
						c1.585-1.346,2.143-3.552,1.386-5.49l-25.877-66.34c-0.756-1.94-2.659-3.184-4.738-3.102l-59.318,2.366
						c-15.698-22.851-35.155-43.362-57.979-60.482l4.826-59.132c0.169-2.074-0.995-4.026-2.901-4.863l-65.208-28.611
						c-1.906-0.837-4.131-0.372-5.543,1.158l-40.246,43.589c-28.052-5.204-56.321-5.633-83.766-1.713l-38.424-45.253
						c-1.346-1.587-3.552-2.144-5.491-1.388l-66.34,25.877c-1.938,0.756-3.184,2.659-3.102,4.738l2.365,59.318
						c-22.851,15.699-43.362,35.156-60.482,57.979l-59.131-4.826c-2.073-0.17-4.027,0.996-4.862,2.902l-28.612,65.206
						c-0.836,1.906-0.372,4.132,1.157,5.544l43.589,40.246c-5.202,28.052-5.632,56.319-1.713,83.765l-45.253,38.425
						c-1.587,1.347-2.143,3.551-1.388,5.491L1022.884,1248.562z"/>
					<g>
						<path style="fill:#BDD0FB;" d="M1279.172,1169.874c-33.201-10.728-54.476-44.528-48.537-79.941
							c6.531-38.927,43.509-65.278,82.433-58.75c18.859,3.159,35.353,13.48,46.447,29.047
							c11.097,15.568,15.467,34.528,12.302,53.384c-6.531,38.927-43.509,65.278-82.433,58.75
							C1285.875,1171.775,1282.463,1170.938,1279.172,1169.874z M1318.213,1049.58c-2.564-0.828-5.202-1.475-7.908-1.93
							c-29.842-5.007-58.196,15.203-63.203,45.043c-5.006,29.844,15.191,58.207,45.044,63.205
							c29.842,5.008,58.196-15.202,63.203-45.043c2.425-14.46-0.924-28.994-9.432-40.932
							C1339.001,1060.221,1329.348,1053.178,1318.213,1049.58z"/>
					</g>
					<path style="fill:#BDD0FB;" d="M1248.777,1268.698c-5.702-1.842-11.345-3.982-16.907-6.422l0,0
						c-1.751-0.767-3.49-1.564-5.216-2.388c-8.508-4.064-16.679-8.799-24.388-14.131c-0.105-0.073-0.21-0.145-0.315-0.217
						c-0.297-0.208-0.594-0.415-0.89-0.626c-0.578-0.405-1.151-0.818-1.723-1.229c-1.504-1.086-2.07-2.987-1.531-4.663
						c0.132-0.407,0.33-0.802,0.593-1.167c1.35-1.869,3.959-2.281,5.827-0.936c9.615,6.95,20.043,12.907,30.996,17.71
						c54.397,23.879,114.753,16.443,160.804-14.379c25.616-17.141,46.805-41.521,60.079-71.778
						c2.329-5.305,4.373-10.69,6.129-16.129c11.823-36.604,10.707-75.835-3.461-112.153c-16.272-41.72-47.819-74.606-88.824-92.598
						c-84.692-37.151-183.742,1.51-220.883,86.158c-2.29,5.219-4.308,10.535-6.047,15.924c-7.54,23.35-9.888,48.09-6.787,72.453
						c0.079,0.63,0.016,1.243-0.169,1.809c-0.481,1.49-1.787,2.648-3.445,2.858c-2.289,0.284-4.38-1.321-4.668-3.616
						c-3.255-25.578-0.793-51.554,7.124-76.067c1.825-5.656,3.943-11.235,6.345-16.714
						c38.995-88.873,143.043-129.432,231.884-90.452c43.05,18.889,76.164,53.413,93.247,97.211
						c14.875,38.128,16.046,79.313,3.635,117.741c-1.845,5.71-3.99,11.362-6.432,16.93c-18.891,43.052-53.414,76.168-97.21,93.252
						C1328.407,1279.952,1287.211,1281.117,1248.777,1268.698z"/>
				</g>
			</g>
			<g>
				<g style="opacity:0.3;">
					<path style="fill:#91B3FA;" d="M475.529,1183.349c-2.653-0.857-4.538-3.378-4.458-6.309c0.147-5.47,0.462-11.01,0.938-16.466
						c0.309-3.545,3.432-6.168,6.981-5.861c3.553,0.295,6.17,3.436,5.861,6.981c-0.453,5.199-0.754,10.479-0.896,15.7
						c-0.094,3.555-3.058,6.361-6.617,6.27C476.707,1183.643,476.101,1183.533,475.529,1183.349z"/>
					<path style="fill:#91B3FA;" d="M481.412,1134.115c-3.108-1.004-5.013-4.22-4.314-7.479c1.971-9.214,4.44-18.431,7.335-27.391
						c0.61-1.887,1.243-3.772,1.895-5.659c1.17-3.366,4.979-4.96,8.204-3.984c3.364,1.166,5.144,4.838,3.982,8.199
						c-0.625,1.802-1.231,3.605-1.814,5.408c-2.762,8.547-5.116,17.339-6.999,26.123c-0.745,3.484-4.169,5.698-7.651,4.957
						C481.833,1134.238,481.619,1134.182,481.412,1134.115z M503.333,1070.88c-0.29-0.094-0.581-0.207-0.861-0.344
						c-3.198-1.569-4.52-5.43-2.954-8.628c5.022-10.259,10.726-20.296,16.951-29.828c1.946-2.983,5.953-3.805,8.921-1.873
						c2.982,1.949,3.82,5.937,1.874,8.92c-5.939,9.095-11.378,18.67-16.169,28.453
						C509.667,1070.493,506.335,1071.85,503.333,1070.88z M539.934,1014.849c-0.778-0.252-1.52-0.657-2.184-1.215
						c-2.716-2.3-3.048-6.37-0.748-9.086c7.375-8.698,15.374-17.034,23.779-24.763c2.622-2.414,6.689-2.244,9.108,0.383
						c2.409,2.617,2.238,6.697-0.379,9.105c-8.015,7.373-15.641,15.314-22.672,23.613
						C545.096,1014.936,542.345,1015.628,539.934,1014.849z M589.192,969.529c-1.27-0.41-2.421-1.218-3.258-2.383
						c-2.067-2.897-1.397-6.927,1.5-8.995c9.3-6.639,19.089-12.757,29.105-18.187c3.131-1.694,7.042-0.523,8.736,2.598
						c1.698,3.128,0.537,7.039-2.596,8.74c-9.546,5.171-18.888,11.01-27.753,17.34C593.197,969.878,591.069,970.136,589.192,969.529
						z M648.022,937.616c-1.773-0.573-3.286-1.909-4.021-3.78c-1.301-3.311,0.331-7.05,3.643-8.355
						c10.622-4.169,21.601-7.726,32.633-10.564c3.452-0.896,6.963,1.185,7.85,4.634c0.887,3.449-1.189,6.965-4.633,7.849
						c-10.527,2.711-21,6.101-31.134,10.083C650.915,938.048,649.391,938.058,648.022,937.616z M712.807,920.95
						c-2.297-0.742-4.081-2.755-4.413-5.31c-0.457-3.528,2.035-6.758,5.564-7.218c11.315-1.464,22.83-2.235,34.218-2.286
						c3.57-0.004,6.458,2.861,6.476,6.419c0.018,3.558-2.858,6.459-6.415,6.474c-10.862,0.049-21.835,0.783-32.622,2.18
						C714.637,921.336,713.685,921.234,712.807,920.95z M779.683,920.63c-2.875-0.929-4.786-3.788-4.413-6.896
						c0.424-3.534,3.633-6.056,7.169-5.635c11.292,1.353,22.645,3.435,33.751,6.182c3.448,0.916,5.564,4.358,4.706,7.811
						c-0.855,3.455-4.35,5.561-7.805,4.708c-10.592-2.629-21.421-4.612-32.187-5.902C780.48,920.848,780.073,920.755,779.683,920.63
						z M875.162,950.621c-0.353-0.114-0.706-0.261-1.047-0.444c-8.299-4.408-16.986-8.439-25.82-11.981
						c-1.335-0.544-2.653-1.062-3.973-1.562c-3.326-1.273-4.995-4.994-3.725-8.321c1.267-3.335,5.049-5.09,8.319-3.729
						c1.406,0.54,2.808,1.086,4.208,1.657c9.229,3.703,18.335,7.929,27.038,12.554c3.145,1.671,4.339,5.57,2.668,8.714
						C881.342,950.31,878.082,951.565,875.162,950.621z"/>
				</g>
				<g style="opacity:0.3;">
					<path style="fill:#91B3FA;" d="M667.442,1450.646c-3.348-1.082-5.215-4.662-4.174-8.036c1.049-3.399,4.659-5.308,8.06-4.256
						c10.24,3.163,20.759,5.728,31.267,7.623c3.475,0.66,5.835,3.982,5.201,7.488c-0.633,3.506-3.987,5.83-7.488,5.201
						c-11.019-1.993-22.048-4.677-32.782-7.993C667.499,1450.665,667.469,1450.655,667.442,1450.646z M636.576,1439.039
						c-0.222-0.072-0.436-0.155-0.653-0.251c-10.249-4.568-20.324-9.808-29.946-15.57c-3.053-1.833-4.047-5.786-2.217-8.84
						c1.829-3.061,5.801-4.033,8.842-2.223c9.181,5.5,18.795,10.498,28.574,14.862c3.25,1.447,4.711,5.26,3.261,8.509
						C643.079,1438.567,639.667,1440.037,636.576,1439.039z M732.214,1462.314c-2.72-0.879-4.617-3.503-4.451-6.492
						c0.197-3.548,3.237-6.271,6.792-6.074c10.708,0.589,21.538,0.536,32.197-0.168c3.56-0.219,6.621,2.457,6.852,6.011
						c0.236,3.549-2.457,6.622-6.009,6.856c-11.173,0.736-22.529,0.791-33.751,0.168
						C733.274,1462.584,732.729,1462.481,732.214,1462.314z M580.103,1405.166c-0.697-0.225-1.368-0.574-1.982-1.05
						c-8.856-6.904-17.374-14.425-25.313-22.356c-2.521-2.515-2.522-6.596-0.007-9.118c2.511-2.509,6.593-2.513,9.114-0.005
						c7.572,7.56,15.692,14.728,24.135,21.313c2.805,2.19,3.308,6.241,1.119,9.047
						C585.457,1405.189,582.607,1405.975,580.103,1405.166z M797.881,1457.978c-2.171-0.702-3.903-2.537-4.356-4.933
						c-0.665-3.502,1.635-6.873,5.131-7.537c10.509-1.989,21.005-4.644,31.202-7.898c3.397-1.086,7.02,0.793,8.1,4.186
						c1.08,3.392-0.793,7.02-4.185,8.101c-10.692,3.405-21.697,6.193-32.715,8.282
						C799.959,1458.386,798.872,1458.299,797.881,1457.978z M860.593,1438.016c-1.662-0.537-3.099-1.742-3.883-3.451
						c-1.481-3.237-0.059-7.064,3.178-8.545c9.75-4.464,19.315-9.556,28.423-15.133c3.04-1.862,7.01-0.904,8.864,2.13
						c1.86,3.036,0.906,7-2.128,8.858c-9.551,5.851-19.575,11.191-29.792,15.868C863.73,1438.441,862.072,1438.494,860.593,1438.016
						z M916.721,1403.602c-1.168-0.377-2.242-1.088-3.06-2.126c-2.216-2.787-1.748-6.843,1.041-9.057
						c8.4-6.659,16.461-13.899,23.958-21.511c2.497-2.527,6.58-2.564,9.113-0.065c2.536,2.499,2.568,6.578,0.067,9.117
						c-7.863,7.978-16.317,15.572-25.125,22.562C920.96,1403.913,918.704,1404.243,916.721,1403.602z"/>
					<path style="fill:#91B3FA;" d="M533.305,1358.418c-1.183-0.382-2.268-1.11-3.092-2.163c-3.398-4.346-6.681-8.813-9.764-13.276
						c-2.021-2.929-1.288-6.946,1.641-8.969c2.929-2.01,6.941-1.283,8.969,1.642c2.937,4.257,6.072,8.518,9.312,12.667
						c2.193,2.805,1.693,6.858-1.111,9.047C537.51,1358.731,535.273,1359.054,533.305,1358.418z"/>
				</g>
				<g>
					<path style="fill:#91B3FA;" d="M564.007,1280.83c0.506,1.297,1.779,2.131,3.17,2.075l39.693-1.583
						c10.505,15.29,23.524,29.016,38.797,40.472l-3.229,39.567c-0.114,1.388,0.666,2.694,1.941,3.254l43.634,19.146
						c1.276,0.559,2.765,0.248,3.71-0.775l26.93-29.168c18.772,3.481,37.687,3.769,56.052,1.146l25.712,30.282
						c0.902,1.061,2.377,1.434,3.674,0.928l44.392-17.316c1.298-0.507,2.131-1.78,2.075-3.171l-1.583-39.693
						c15.291-10.505,29.016-23.525,40.472-38.797l39.568,3.229c1.388,0.113,2.694-0.666,3.254-1.941l19.146-43.634
						c0.56-1.276,0.249-2.765-0.775-3.709l-29.168-26.931c3.482-18.772,3.769-37.687,1.146-56.052l30.282-25.713
						c1.061-0.901,1.434-2.376,0.928-3.673l-17.316-44.392c-0.505-1.297-1.779-2.13-3.17-2.075l-39.694,1.583
						c-10.504-15.291-23.524-29.016-38.797-40.472l3.229-39.568c0.113-1.387-0.666-2.694-1.941-3.254l-43.634-19.146
						c-1.275-0.56-2.764-0.248-3.709,0.775l-26.93,29.168c-18.772-3.482-37.688-3.769-56.053-1.146l-25.711-30.281
						c-0.901-1.062-2.377-1.435-3.674-0.929l-44.392,17.316c-1.297,0.506-2.131,1.779-2.075,3.171l1.582,39.693
						c-15.291,10.505-29.016,23.525-40.472,38.797l-39.568-3.23c-1.387-0.113-2.694,0.666-3.253,1.942l-19.146,43.633
						c-0.559,1.276-0.248,2.765,0.775,3.71L579.047,1151c-3.481,18.771-3.769,37.686-1.146,56.052l-30.281,25.712
						c-1.062,0.901-1.434,2.376-0.928,3.674L564.007,1280.83z"/>
					<g>
						<path style="fill:#BDD0FB;" d="M735.169,1228.976c-9.894-3.197-18.47-9.454-24.615-18.074
							c-7.558-10.605-10.532-23.52-8.376-36.364c4.444-26.506,29.63-44.458,56.146-40.017c26.541,4.501,44.467,29.643,40.019,56.154
							c-2.153,12.846-9.181,24.083-19.785,31.637c-10.606,7.561-23.521,10.538-36.368,8.379
							C739.791,1230.285,737.443,1229.711,735.169,1228.976z M761.308,1148.482c-1.651-0.533-3.357-0.952-5.117-1.25
							c-19.504-3.266-38.03,9.938-41.301,29.441c-1.583,9.444,0.602,18.948,6.162,26.745c5.562,7.804,13.828,12.962,23.274,14.559
							l0,0c9.447,1.584,18.949-0.605,26.748-6.162c7.804-5.562,12.972-13.828,14.557-23.278
							C788.608,1170.798,777.944,1153.858,761.308,1148.482z"/>
					</g>
					<path style="fill:#BDD0FB;" d="M713.924,1297.735c-3.881-1.254-7.729-2.716-11.542-4.385
						c-7.57-3.319-14.811-7.412-21.536-12.178c-0.301-0.216-0.601-0.433-0.902-0.649c-2.323-1.677-3.197-4.612-2.364-7.2
						c0.203-0.629,0.509-1.238,0.916-1.801c2.084-2.886,6.111-3.516,8.997-1.446c6.237,4.509,12.988,8.364,20.064,11.464
						l0.003,0.001c0.388,0.171,0.78,0.338,1.167,0.502c16.812,7.186,34.779,9.908,52.51,8.229
						c9.625-0.912,19.186-3.128,28.456-6.648c0.076-0.028,0.151-0.057,0.226-0.085c0.231-0.091,0.461-0.176,0.689-0.267
						c27.007-10.537,48.298-30.957,59.945-57.504c1.51-3.435,2.831-6.918,3.969-10.44c7.653-23.696,6.929-49.094-2.241-72.61
						c-10.537-27.007-30.96-48.292-57.503-59.938c-26.533-11.63-56.04-12.26-83.049-1.73
						c-27.007,10.536-48.298,30.957-59.945,57.504c-1.485,3.377-2.789,6.819-3.915,10.305c-4.882,15.119-6.402,31.133-4.393,46.904
						c0.123,0.972,0.025,1.92-0.26,2.793c-0.743,2.3-2.76,4.09-5.319,4.414c-3.532,0.44-6.759-2.045-7.209-5.584
						c-2.246-17.647-0.547-35.567,4.911-52.478c1.262-3.905,2.72-7.754,4.378-11.532c13.034-29.704,36.852-52.549,67.071-64.337
						c30.214-11.783,63.203-11.125,92.909,1.933c29.701,13.03,52.548,36.845,64.332,67.066c10.264,26.304,11.071,54.719,2.508,81.23
						c-1.272,3.935-2.75,7.837-4.435,11.678C837.128,1288.448,772.437,1316.642,713.924,1297.735z"/>
				</g>
			</g>
		</g>
		<g>
			<path style="fill:#BDD0FB;" d="M2832.874,613.907c-2.383-11.248-19.797-11.282-25.196-0.104
				c-54.821,113.503-166.545,428.741,63.286,779.781c288.357,440.432,255.489,666.067,163.202,837.664
				c0,0,171.32-140.841,211.592-373.049C3344.633,1288.075,2875.243,813.899,2832.874,613.907z"/>
			<path style="fill:#FFFFFF;" d="M2834.722,792.948c13.607,57.726,28.495,115.047,45.739,171.549
				c16.903,56.608,35.751,112.527,56.565,167.629c21.055,55,43.291,109.512,68.159,162.814
				c24.59,53.43,51.807,105.571,79.347,157.813c27.184,52.386,54.916,104.984,76.462,160.957
				c21.559,55.831,35.81,115.674,37.263,177.371c0.345,15.384,0.381,30.866-0.591,46.299c-0.659,15.424-2.069,30.902-3.782,46.382
				c-3.595,30.97-9.44,62.007-17.753,92.766c-16.797,61.507-43.639,121.683-77.883,178.033c-3.604,5.931-11.506,8.604-17.65,5.973
				c-6.032-2.584-8.125-9.324-4.786-15.182l0.024-0.042c7.927-13.877,15.68-27.803,22.759-41.927
				c3.659-7.025,6.984-14.147,10.448-21.225c3.179-7.159,6.653-14.239,9.595-21.456c12.283-28.73,22.42-57.988,30.202-87.543
				c15.859-59.008,22.326-119.493,21.053-178.447c-1.006-29.442-4.414-58.518-10.313-87c-5.924-28.477-14.325-56.333-24.544-83.591
				c-20.446-54.547-47.393-106.864-74.137-159.469c-26.671-52.656-53.052-105.779-76.854-160.062
				c-11.984-27.1-23.404-54.45-34.254-82.03c-5.516-13.751-10.725-27.628-15.962-41.492c-5.084-13.925-10.079-27.882-14.943-41.886
				c-19.338-56.066-36.709-112.839-52.012-170.24c-14.991-57.498-28.246-115.516-38.952-174.157
				c-0.306-1.677,0.975-3.416,2.861-3.887C2832.613,790.444,2834.345,791.36,2834.722,792.948z"/>
		</g>
		<g>
			<g>
				<path style="fill:#91B3FA;" d="M2876.101,1502.579c14.385,9.849,34.155,1.806,37.801-15.243
					c20.118-94.069,52.947-365.181-155.267-623.884c-175.828-218.463-250.408-353.632-280.013-417.339
					c-6.26-13.471-26.08-11.121-29.043,3.435C2416.877,610.146,2354.837,1145.689,2876.101,1502.579z"/>
				<path style="fill:#FFFFFF;" d="M2895.353,1488.918c0.432-0.016,0.867-0.074,1.304-0.177c3.66-0.857,5.933-4.519,5.076-8.178
					c-0.972-4.15-99.788-418.532-330.542-733.334c-2.222-3.029-6.48-3.686-9.515-1.466c-3.031,2.224-3.688,6.482-1.466,9.516
					c229.076,312.51,327.303,724.265,328.269,728.387C2889.233,1486.89,2892.163,1489.037,2895.353,1488.918z"/>
			</g>
		</g>
		
			<linearGradient id="SVGID_00000054947898267693976660000012286217731102625949_" gradientUnits="userSpaceOnUse" x1="1182.1687" y1="1406.9741" x2="325.9323" y2="3288.4148">
			<stop  offset="0" style="stop-color:#FDF53F"/>
			<stop  offset="1" style="stop-color:#D93C65"/>
		</linearGradient>
		<circle style="fill:url(#SVGID_00000054947898267693976660000012286217731102625949_);" cx="956.607" cy="1902.61" r="242.175"/>
		<g>
			<g>
				<g>
					
						<linearGradient id="SVGID_00000044880134158558565150000006848221967665457596_" gradientUnits="userSpaceOnUse" x1="1601.3634" y1="2857.8149" x2="2238.6311" y2="946.0068">
						<stop  offset="0" style="stop-color:#09005D"/>
						<stop  offset="1" style="stop-color:#1A0F91"/>
					</linearGradient>
					<path style="fill:url(#SVGID_00000044880134158558565150000006848221967665457596_);" d="M3238.996,2929.52
						c0,27.496-22.329,49.993-49.621,49.993H506.067c-27.291,0-49.621-22.497-49.621-49.993l-22.328-1555.083
						c0-27.496,32.123-81.176,90.995-77.142l2622.425-68.43c34.243-0.893,67.351,12.398,91.6,36.773
						c24.249,24.375,37.517,57.701,36.708,92.202L3238.996,2929.52z"/>
					
						<linearGradient id="SVGID_00000122700750386357136710000007703634171971345803_" gradientUnits="userSpaceOnUse" x1="3495.0874" y1="304.6668" x2="967.473" y2="3154.231">
						<stop  offset="0" style="stop-color:#4F52FF"/>
						<stop  offset="1" style="stop-color:#4042E2"/>
					</linearGradient>
					<path style="fill:url(#SVGID_00000122700750386357136710000007703634171971345803_);" d="M3190.007,2881.557
						c0,26.038-21.125,47.342-46.945,47.342H570.777c-25.819,0-46.945-21.304-46.945-47.342l-21.07-1411.717
						c2.482-84.954,76.337-115.487,121.107-113.684c0,0,2049.664-55.455,2513.354-68.001c24.057-0.651,47.317,8.696,64.356,25.835
						c17.039,17.139,26.41,40.595,25.806,64.857L3190.007,2881.557z"/>
					<g style="opacity:0.5;">
						<path style="fill:#BDD0FB;" d="M551.631,2207.377c-1.87,0-3.398-1.5-3.425-3.375l-1.666-114.488
							c-0.027-1.892,1.485-3.447,3.375-3.475c0.017,0,0.033,0,0.05,0c1.87,0,3.398,1.5,3.425,3.375l1.666,114.489
							c0.027,1.891-1.485,3.447-3.375,3.475C551.665,2207.377,551.648,2207.377,551.631,2207.377z"/>
						<path style="fill:#BDD0FB;" d="M547.547,1926.82c-1.87,0-3.398-1.5-3.425-3.375l-6.385-438.487
							c0.13-29.306,9.124-52.684,26.727-69.546c31.761-30.43,81.246-28.883,83.309-28.808l802.646-21.722
							c1.957-0.104,3.468,1.437,3.519,3.331c0.05,1.89-1.442,3.465-3.331,3.515l-802.843,21.722
							c-2.231-0.065-48.876-1.532-78.563,26.908c-16.208,15.529-24.49,37.251-24.614,64.564l6.385,438.422
							c0.027,1.891-1.485,3.447-3.375,3.475C547.581,1926.82,547.564,1926.82,547.547,1926.82z"/>
					</g>
					<path style="fill:#7D97F4;" d="M637.157,2803.242c2.693-116.68,1.69-1149.912-4.948-1239.146
						c-6.639-89.234,131.171-105.972,342.751-116.014c211.58-10.042,1996.762-49.801,2042.727-53.559
						c103.319-8.449,124.704,147.288,114.367,485.381c-7.765,254.005-20.636,672.437-26.558,864.863
						c-1.763,57.296-48.2,102.756-105.043,102.914c-429.588,1.19-2076.072,5.949-2185.68,9.24
						C688.638,2860.708,636.09,2849.508,637.157,2803.242z"/>
				</g>
				<g>
					<path style="fill:#BDD0FB;" d="M655.735,1611.702l28.617,1172.853c0.937,38.407,29.052,69.015,63.117,68.713l461.468-4.083
						c34.205-0.302,61.645-31.646,61.476-70.22l-5.234-1191.416c-0.175-39.96-29.83-71.893-65.229-70.24L715.1,1539.955
						C681.196,1541.539,654.802,1573.438,655.735,1611.702z"/>
					<path style="fill:#91B3FA;" d="M1328.516,1596.488l23.295,1188.402c0.757,38.639,29.042,69.508,63.308,69.091l1640.901-19.937
						c34.625-0.421,62.148-32.6,61.274-71.643l-26.749-1195.642c-0.865-38.66-29.266-69.438-63.55-68.869l-1637.446,27.178
						C1355.099,1525.641,1327.755,1557.638,1328.516,1596.488z"/>
				</g>
			</g>
			<path style="fill:#BDD0FB;" d="M2983.163,2774.386H1473.081c-22.605,0-41.099-18.495-41.099-41.099v-348.504
				c0-22.604,18.495-41.099,41.099-41.099h1510.082c22.605,0,41.099,18.495,41.099,41.099v348.504
				C3024.262,2755.891,3005.768,2774.386,2983.163,2774.386z"/>
			<path style="fill:#BDD0FB;" d="M1891.353,2283.398h-417.477c-22.605,0-41.099-18.495-41.099-41.1v-617.057
				c0-22.605,18.495-41.099,41.099-41.099h417.477c22.605,0,41.099,18.495,41.099,41.099v617.057
				C1932.453,2264.903,1913.958,2283.398,1891.353,2283.398z"/>
			<path style="fill:#BDD0FB;" d="M2446.665,2287.681h-417.477c-22.605,0-41.099-18.495-41.099-41.099v-617.057
				c0-22.605,18.495-41.099,41.099-41.099h417.477c22.605,0,41.099,18.495,41.099,41.099v617.057
				C2487.764,2269.186,2469.269,2287.681,2446.665,2287.681z"/>
			<path style="fill:#BDD0FB;" d="M2991.689,2293.576h-417.477c-22.604,0-41.099-18.495-41.099-41.099v-617.057
				c0-22.605,18.495-41.099,41.099-41.099h417.477c22.605,0,41.099,18.495,41.099,41.099v617.057
				C3032.788,2275.081,3014.294,2293.576,2991.689,2293.576z"/>
			<g>
				<defs>
					<circle id="SVGID_00000126307854553168987500000011827880994001023392_" cx="966.629" cy="1836.884" r="252.127"/>
				</defs>
				<use xlink:href="#SVGID_00000126307854553168987500000011827880994001023392_"  style="overflow:visible;fill:#91B3FA;"/>
				<clipPath id="SVGID_00000006674162846150071370000009064566115677010821_">
					<use xlink:href="#SVGID_00000126307854553168987500000011827880994001023392_"  style="overflow:visible;"/>
				</clipPath>
				<g style="clip-path:url(#SVGID_00000006674162846150071370000009064566115677010821_);">
					
						<linearGradient id="SVGID_00000000929899982094436280000011956915256157206167_" gradientUnits="userSpaceOnUse" x1="968.0446" y1="1617.7643" x2="942.1516" y2="2036.032">
						<stop  offset="0" style="stop-color:#09005D"/>
						<stop  offset="1" style="stop-color:#1A0F91"/>
					</linearGradient>
					<path style="fill:url(#SVGID_00000000929899982094436280000011956915256157206167_);" d="M908.316,1768.927
						c-15,0-30.56,1.912-36.432-16.157c-11.056-34.03,7.516-84.905,37.971-103.431c10.187-6.197,22.064-8.908,33.754-11.255
						c13.749-2.76,25.627-3.447,38.026,3.221c11.436,6.151,22.541-3.737,34.396,4.16c10.076,6.712,17.801,17.282,23.187,27.963
						c7.032,13.947,10.686,29.326,13.752,44.641c0.694,3.469,1.361,7.062,0.586,10.514c-0.65,2.893-2.265,5.462-3.873,7.953
						c-12.297,19.045-28.665,32.389-52.335,32.391C997.346,1768.927,908.711,1768.927,908.316,1768.927z"/>
					
						<linearGradient id="SVGID_00000024720706591847041560000007949385581196014758_" gradientUnits="userSpaceOnUse" x1="877.444" y1="1612.1558" x2="851.5511" y2="2030.4214">
						<stop  offset="0" style="stop-color:#09005D"/>
						<stop  offset="1" style="stop-color:#1A0F91"/>
					</linearGradient>
					<path style="fill:url(#SVGID_00000024720706591847041560000007949385581196014758_);" d="M905.305,1709.028
						c0,0,2.713,5.68-14.951,14.557c-9.85,4.949-29.01,12.265-31.539,33.634c-1.305,11.032-5.615,38.271-16.111,39.955
						c-26.142,4.195-61.428,20.51-64.719,52.23c-3.777,36.407,6.695,55.518,25.23,60.278c13.613,3.497,17.063,7.156,14.309,21.545
						c-2.641,13.801,7.828,63.321,30.665,75.938c51.177,28.272,95.754-100.544,95.754-100.544l10.474-166.313L905.305,1709.028z"/>
					
						<linearGradient id="SVGID_00000057860785978647767170000007105296801973119143_" gradientUnits="userSpaceOnUse" x1="1072.3767" y1="1624.2229" x2="1046.4838" y2="2042.4895">
						<stop  offset="0" style="stop-color:#09005D"/>
						<stop  offset="1" style="stop-color:#1A0F91"/>
					</linearGradient>
					<path style="fill:url(#SVGID_00000057860785978647767170000007105296801973119143_);" d="M1022.423,1694.485
						c0,0-2.762,6.018,15.221,15.423c10.027,5.244,29.534,12.995,32.109,35.635c1.329,11.688,4.439,28.112,15.125,29.896
						c26.614,4.444,57.457,30.375,64.019,80.719c5.009,38.427-5.925,79.641-24.794,84.684c-13.859,3.705-12.817-3.641-10.013,11.604
						c2.688,14.622-3.621,8.978-26.871,22.345c-52.101,29.953-104.132-70.962-104.132-70.962l-10.663-176.203L1022.423,1694.485z"/>
					
						<linearGradient id="SVGID_00000115491314998194635460000010532466602690553218_" gradientUnits="userSpaceOnUse" x1="1021.7363" y1="1840.0341" x2="985.6562" y2="1882.1276">
						<stop  offset="0" style="stop-color:#CB236D"/>
						<stop  offset="1" style="stop-color:#4C246D"/>
					</linearGradient>
					<path style="fill:url(#SVGID_00000115491314998194635460000010532466602690553218_);" d="M952.774,1879.148
						c0,0,39.549-10.191,47.949,2.409c4.2,20.951,6.359,41.766,6.359,41.766l-45.571,8.558l-30.137-6.939l-7.17-4.163l-2.974-29.683
						C921.232,1891.096,936.645,1882.155,952.774,1879.148z"/>
					
						<linearGradient id="SVGID_00000071535207352087196590000000098164626019143598_" gradientUnits="userSpaceOnUse" x1="900.8911" y1="1768.8427" x2="969.0038" y2="1551.3604">
						<stop  offset="0" style="stop-color:#FEBBBA"/>
						<stop  offset="1" style="stop-color:#FF928E"/>
					</linearGradient>
					<path style="fill:url(#SVGID_00000071535207352087196590000000098164626019143598_);" d="M905.334,1773.449
						c0,0-6.359-19.078-15.898-12.719c-9.539,6.36,14.316,46.944,14.316,46.944L905.334,1773.449z"/>
					
						<linearGradient id="SVGID_00000044862907975847604870000017160787545210568581_" gradientUnits="userSpaceOnUse" x1="1001.4785" y1="1800.3453" x2="1069.5913" y2="1582.863">
						<stop  offset="0" style="stop-color:#FEBBBA"/>
						<stop  offset="1" style="stop-color:#FF928E"/>
					</linearGradient>
					<path style="fill:url(#SVGID_00000044862907975847604870000017160787545210568581_);" d="M1000.723,1773.449
						c0,0,0-28.617,15.898-12.719c15.898,15.898-15.898,38.156-15.898,38.156V1773.449z"/>
					
						<linearGradient id="SVGID_00000116212793382485342550000014341123965271050147_" gradientUnits="userSpaceOnUse" x1="1670.2716" y1="1430.8953" x2="1386.0013" y2="1722.0157">
						<stop  offset="0" style="stop-color:#FF928E"/>
						<stop  offset="1" style="stop-color:#FE7062"/>
					</linearGradient>
					<path style="fill:url(#SVGID_00000116212793382485342550000014341123965271050147_);" d="M1150.472,2033.325
						c-13.311-64.253-32.424-114.473-38.461-117.381l-36.098,89.307c0,0-7.288,26.613-6.7,59.654h55.516
						C1141.373,2064.906,1153.848,2049.623,1150.472,2033.325z"/>
					
						<linearGradient id="SVGID_00000001652620542260958400000012841768593599170994_" gradientUnits="userSpaceOnUse" x1="1533.7401" y1="1297.5768" x2="1249.4691" y2="1588.6981">
						<stop  offset="0" style="stop-color:#FF928E"/>
						<stop  offset="1" style="stop-color:#FE7062"/>
					</linearGradient>
					<path style="fill:url(#SVGID_00000001652620542260958400000012841768593599170994_);" d="M872.6,2064.906
						c1.664-28.702,0.937-46.78,0.937-46.78l-50.874-82.593c0,0-6.359,25.32-12.719,92.092c-0.295,3.103-0.577,6.26-0.846,9.462
						c-1.257,14.975,10.58,27.818,25.607,27.818H872.6z"/>
					
						<linearGradient id="SVGID_00000130613825126734219790000005188528004800422826_" gradientUnits="userSpaceOnUse" x1="955.8206" y1="1994.3887" x2="987.2232" y2="1784.2339">
						<stop  offset="0" style="stop-color:#FEBBBA"/>
						<stop  offset="1" style="stop-color:#FF928E"/>
					</linearGradient>
					<path style="fill:url(#SVGID_00000130613825126734219790000005188528004800422826_);" d="M943.025,2065.085h55.395
						l15.022-157.9c0,0-12.718-3.275-19.077-25.532c-6.36-22.257-9.54-66.82-9.54-66.82l-57.233,12.694
						c0,0,6.359,60.592-6.359,89.209L943.025,2065.085z"/>
					
						<linearGradient id="SVGID_00000158711195637423836330000005031501951262091429_" gradientUnits="userSpaceOnUse" x1="940.105" y1="2052.7229" x2="957.4693" y2="1936.516">
						<stop  offset="0" style="stop-color:#09005D"/>
						<stop  offset="1" style="stop-color:#1A0F91"/>
					</linearGradient>
					<path style="fill:url(#SVGID_00000158711195637423836330000005031501951262091429_);" d="M1028.179,2084.957l8.108-119.546
						c-58.024,34.713-117.693,33.031-178.211,14.622l56.187,108.977L1028.179,2084.957z"/>
					
						<linearGradient id="SVGID_00000083080345668773020490000011182392181449656466_" gradientUnits="userSpaceOnUse" x1="1568.5933" y1="1331.6099" x2="1284.3232" y2="1622.7302">
						<stop  offset="0" style="stop-color:#FF928E"/>
						<stop  offset="1" style="stop-color:#FE7062"/>
					</linearGradient>
					<path style="fill:url(#SVGID_00000083080345668773020490000011182392181449656466_);" d="M967.337,2107.134
						c-17.194-82.934-46.105-215.938-46.105-215.938l-9.539,19.029l-89.031,25.512c4.359,20.343,17.669,76.333,31.051,129.169
						L967.337,2107.134z"/>
					
						<linearGradient id="SVGID_00000142896044024695979720000009195776353249693878_" gradientUnits="userSpaceOnUse" x1="1619.9186" y1="1381.7281" x2="1335.6478" y2="1672.8491">
						<stop  offset="0" style="stop-color:#FF928E"/>
						<stop  offset="1" style="stop-color:#FE7062"/>
					</linearGradient>
					<path style="fill:url(#SVGID_00000142896044024695979720000009195776353249693878_);" d="M1083.84,2064.906
						c4.743-25.404,8.922-45.235,8.922-45.235l19.249-103.726c-6.057-6.058-101.112-19.093-101.112-19.093l-10.175-15.187
						c0,0-18.295,135.876-29.144,226.847L1083.84,2064.906z"/>
					
						<linearGradient id="SVGID_00000035528769493581882470000001398802088469742995_" gradientUnits="userSpaceOnUse" x1="946.9858" y1="1783.2789" x2="1015.0989" y2="1565.7953">
						<stop  offset="0" style="stop-color:#FEBBBA"/>
						<stop  offset="1" style="stop-color:#FF928E"/>
					</linearGradient>
					<path style="fill:url(#SVGID_00000035528769493581882470000001398802088469742995_);" d="M898.974,1728.934
						c0,0-3.18,76.312,6.359,89.03c9.539,12.719,22.258,41.335,44.515,44.515c22.258,3.18,57.234-60.413,57.234-63.593
						c0-3.18-3.18-85.85-3.18-85.85S937.13,1658.982,898.974,1728.934z"/>
					
						<linearGradient id="SVGID_00000090973941324368485210000011398266223615429776_" gradientUnits="userSpaceOnUse" x1="877.3943" y1="1607.2504" x2="1153.0841" y2="2046.6881">
						<stop  offset="0" style="stop-color:#09005D"/>
						<stop  offset="1" style="stop-color:#1A0F91"/>
					</linearGradient>
					<path style="fill:url(#SVGID_00000090973941324368485210000011398266223615429776_);" d="M886.256,1716.215
						c0,0-12.719,38.156,25.437,25.438c38.156-12.719,38.156-12.719,38.156-12.719s38.156-22.257,44.515-12.719
						c6.359,9.539,12.719,33.03,12.719,33.03s12.718-33.03,0-52.108C994.364,1678.059,914.873,1662.161,886.256,1716.215z"/>
				</g>
			</g>
			<path style="fill:#FFFFFF;" d="M1198.811,2203.965H739.656c-3.821,0-6.947-3.126-6.947-6.947v-35.647
				c0-3.821,3.126-6.947,6.947-6.947h459.155c3.821,0,6.947,3.126,6.947,6.947v35.647
				C1205.758,2200.839,1202.632,2203.965,1198.811,2203.965z"/>
			<g>
				<path style="fill:#FFFFFF;" d="M1211.809,2337.037H802.65c-3.821,0-6.947-3.126-6.947-6.947v-35.647
					c0-3.821,3.126-6.947,6.947-6.947h409.159c3.821,0,6.947,3.126,6.947,6.947v35.647
					C1218.756,2333.911,1215.63,2337.037,1211.809,2337.037z"/>
				<path style="fill:#FFFFFF;" d="M1211.809,2439.287H802.65c-3.821,0-6.947-3.126-6.947-6.947v-35.647
					c0-3.821,3.126-6.947,6.947-6.947h409.159c3.821,0,6.947,3.126,6.947,6.947v35.647
					C1218.756,2436.161,1215.63,2439.287,1211.809,2439.287z"/>
				
					<ellipse transform="matrix(0.9265 -0.3762 0.3762 0.9265 -815.0646 449.1802)" style="fill:#FFFFFF;" cx="742.503" cy="2311.399" rx="28.001" ry="28.001"/>
				
					<ellipse transform="matrix(0.1588 -0.9873 0.9873 0.1588 -1759.2836 2764.1797)" style="fill:#FFFFFF;" cx="742.503" cy="2414.517" rx="28.001" ry="28.001"/>
				<path style="fill:#FFFFFF;" d="M1211.809,2530.918H802.65c-3.821,0-6.947-3.126-6.947-6.947v-35.647
					c0-3.821,3.126-6.947,6.947-6.947h409.159c3.821,0,6.947,3.126,6.947,6.947v35.647
					C1218.756,2527.792,1215.63,2530.918,1211.809,2530.918z"/>
				
					<ellipse transform="matrix(0.1588 -0.9873 0.9873 0.1588 -1849.7518 2841.26)" style="fill:#FFFFFF;" cx="742.503" cy="2506.147" rx="28.001" ry="28.001"/>
				<path style="fill:#FFFFFF;" d="M1211.809,2622.437H802.65c-3.821,0-6.947-3.126-6.947-6.947v-35.647
					c0-3.821,3.126-6.947,6.947-6.947h409.159c3.821,0,6.947,3.126,6.947,6.947v35.647
					C1218.756,2619.311,1215.63,2622.437,1211.809,2622.437z"/>
				
					<ellipse transform="matrix(0.9265 -0.3762 0.3762 0.9265 -922.7674 470.2134)" style="fill:#FFFFFF;" cx="742.503" cy="2597.667" rx="28.001" ry="28.001"/>
				<path style="fill:#FFFFFF;" d="M1211.809,2713.957H802.65c-3.821,0-6.947-3.126-6.947-6.947v-35.647
					c0-3.821,3.126-6.947,6.947-6.947h409.159c3.821,0,6.947,3.126,6.947,6.947v35.647
					C1218.756,2710.831,1215.63,2713.957,1211.809,2713.957z"/>
				<circle style="fill:#FFFFFF;" cx="742.503" cy="2689.187" r="28.001"/>
			</g>
		</g>
		<g>
			
				<linearGradient id="SVGID_00000132050494567376110990000002426142276393633166_" gradientUnits="userSpaceOnUse" x1="1404.0847" y1="2053.333" x2="2431.5706" y2="121.6613">
				<stop  offset="0" style="stop-color:#FEBBBA"/>
				<stop  offset="1" style="stop-color:#FF928E"/>
			</linearGradient>
			<path style="fill:url(#SVGID_00000132050494567376110990000002426142276393633166_);" d="M1378.633,1516.614l-9.623,305.636
				c-1.046,33.226,25.605,60.729,58.847,60.729h349.274c31.701,0,57.711-25.1,58.839-56.781l8.178-313.618
				c0.757-29.035-22.587-52.976-51.632-52.951l-348.791,0.293C1409.669,1456.29,1379.711,1482.381,1378.633,1516.614z"/>
			<g>
				<path style="fill:#FFFFFF;" d="M1741.574,1823.337h-312.225c-9.141,0-17.451-5.034-21.686-13.138
					c-4.235-8.098-3.625-17.8,1.596-25.305l64.94-93.39c4.031-5.802,10.371-9.575,17.393-10.354
					c6.99-0.779,14.03,1.506,19.236,6.278l24.721,22.294c0.328-0.064,0.422-0.267,0.468-0.372l59.688-130.775
					c3.802-8.336,11.847-13.807,20.995-14.283c9.188-0.395,17.716,4.139,22.358,12.033l123.607,210.132
					c4.508,7.656,4.566,16.841,0.154,24.555S1750.463,1823.337,1741.574,1823.337z M1494.737,1704.985l-0.988,0.11l-64.94,93.39
					c-0.113,0.163-0.23,0.331-0.044,0.686c0.183,0.355,0.387,0.355,0.584,0.355h312.225c0.172,0,0.384,0,0.573-0.331
					c0.192-0.331,0.084-0.517-0.003-0.663l-123.607-210.138c-0.099-0.163-0.224-0.262-0.602-0.32
					c-0.401,0.023-0.488,0.203-0.57,0.384l-59.685,130.775c-3.241,7.104-9.746,12.278-17.399,13.83
					c-7.659,1.552-15.655-0.674-21.404-5.953L1494.737,1704.985z"/>
				<path style="fill:#FFFFFF;" d="M1737.33,1632.807c-31.313,0-56.787-25.474-56.787-56.79s25.474-56.79,56.787-56.79
					c31.313,0,56.79,25.474,56.79,56.79S1768.644,1632.807,1737.33,1632.807z M1737.33,1543.039
					c-18.184,0-32.976,14.795-32.976,32.979c0,18.184,14.792,32.979,32.976,32.979c18.184,0,32.979-14.795,32.979-32.979
					C1770.309,1557.834,1755.514,1543.039,1737.33,1543.039z"/>
			</g>
		</g>
		<g>
			
				<linearGradient id="SVGID_00000103242916664078204450000007766606077289824956_" gradientUnits="userSpaceOnUse" x1="1755.5331" y1="2240.2712" x2="2783.0183" y2="308.6011">
				<stop  offset="0" style="stop-color:#FEBBBA"/>
				<stop  offset="1" style="stop-color:#FF928E"/>
			</linearGradient>
			<path style="fill:url(#SVGID_00000103242916664078204450000007766606077289824956_);" d="M2061.865,1136.383v248.68
				c0,29.547,23.216,53.879,52.73,55.266l310.981,14.611c31.541,1.482,57.924-23.69,57.924-55.266v-263.291
				c0-30.556-24.771-55.327-55.327-55.327h-310.981C2086.635,1081.056,2061.865,1105.827,2061.865,1136.383z"/>
			<path style="fill:#FFFFFF;" d="M2174.522,1393.942c-4.019,0-7.414-0.049-10.105-0.103c-4.592-0.092-8.36-3.474-8.946-8.038
				c-0.589-4.597,2.223-8.843,6.685-10.102c23.883-6.693,49.923-18.07,69.098-27.28c-91.446-7.455-109.702-54.42-113.23-75.904
				c-8.903-54.177,38.12-115.48,104.816-136.656c68.063-21.592,137.007-13.813,175.67,19.831
				c20.544,17.881,42.828,52.119,32.321,113.735C2411.179,1384.704,2231.4,1393.942,2174.522,1393.942z M2166.662,1391.668h0.005
				H2166.662z M2164.76,1377.244c0,0,0.016,0,0.022,0C2164.777,1377.244,2164.769,1377.244,2164.76,1377.244z M2296.882,1332.164
				l-28.971,16.152c-1.526,0.848-27.027,14.991-58.04,27.961c70.6-4.257,190.039-24.201,204.603-109.64
				c7.39-43.368-1.642-76.488-26.854-98.426c-39.111-34.044-108.411-32.823-159.758-16.536
				c-58.15,18.464-100.951,72.566-93.464,118.149c6.799,41.38,53.921,64.528,129.32,62.945L2296.882,1332.164z"/>
		</g>
		<g>
			
				<linearGradient id="SVGID_00000052087791222949424370000008373034595053180290_" gradientUnits="userSpaceOnUse" x1="2207.9663" y1="2480.9314" x2="3235.4519" y2="549.2604">
				<stop  offset="0" style="stop-color:#FEBBBA"/>
				<stop  offset="1" style="stop-color:#FF928E"/>
			</linearGradient>
			<path style="fill:url(#SVGID_00000052087791222949424370000008373034595053180290_);" d="M2375.156,1637.248v249.331
				c0,29.624,23.277,54.02,52.868,55.411l311.795,14.649c31.624,1.486,58.075-23.752,58.075-55.411v-263.98
				c0-30.636-24.835-55.472-55.472-55.472h-311.795C2399.992,1581.777,2375.156,1606.612,2375.156,1637.248z"/>
			<g>
				<path style="fill:#FFFFFF;" d="M2580.901,1884.069c-63.318,0-114.831-51.513-114.831-114.83s51.513-114.83,114.831-114.83
					c63.318,0,114.83,51.513,114.83,114.83S2644.219,1884.069,2580.901,1884.069z M2580.901,1673.651
					c-52.708,0-95.588,42.881-95.588,95.588c0,52.707,42.881,95.588,95.588,95.588c52.707,0,95.587-42.88,95.587-95.588
					C2676.488,1716.532,2633.608,1673.651,2580.901,1673.651z"/>
				<path style="fill-rule:evenodd;clip-rule:evenodd;fill:#FFFFFF;" d="M2544.928,1813.461v-82.555
					c0-8.821,9.602-14.288,17.188-9.787l69.563,41.277c7.431,4.409,7.431,15.165,0,19.574l-69.563,41.278
					C2554.531,1827.75,2544.928,1822.282,2544.928,1813.461z"/>
			</g>
		</g>
		<g>
			
				<linearGradient id="SVGID_00000143606568405490303950000008456051430126844591_" gradientUnits="userSpaceOnUse" x1="2838.0435" y1="920.9401" x2="2413.3486" y2="1362.7601">
				<stop  offset="0" style="stop-color:#FF928E"/>
				<stop  offset="1" style="stop-color:#FE7062"/>
			</linearGradient>
			<path style="fill:url(#SVGID_00000143606568405490303950000008456051430126844591_);" d="M1950.901,1833.78h-39.599v-157.807
				c0-61.982,46.399-114.361,107.928-121.839l80.966-9.839c34.848-4.235,69.91,6.686,96.19,29.965
				c26.28,23.279,41.352,56.765,41.352,91.873v137.768h-39.6v-137.768c0-23.781-10.209-46.463-28.01-62.231
				s-41.552-23.168-65.155-20.297l-80.967,9.839c-41.677,5.065-73.106,40.545-73.106,82.528V1833.78z"/>
			
				<linearGradient id="SVGID_00000163030953525382474480000014539715513103509944_" gradientUnits="userSpaceOnUse" x1="2955.7236" y1="1034.0573" x2="2531.0305" y2="1475.8755">
				<stop  offset="0" style="stop-color:#FF928E"/>
				<stop  offset="1" style="stop-color:#FE7062"/>
			</linearGradient>
			<path style="fill:url(#SVGID_00000163030953525382474480000014539715513103509944_);" d="M1899.596,1798.35l347.127-19.232
				c14.098-0.781,25.959,10.441,25.959,24.561v274.998c0,13.585-11.013,24.599-24.599,24.599h-338.787
				c-13.273,0-24.153-10.531-24.586-23.797l-8.34-255.767C1875.935,1810.352,1886.249,1799.089,1899.596,1798.35z"/>
			
				<linearGradient id="SVGID_00000026868597314850437650000006632911374168127375_" gradientUnits="userSpaceOnUse" x1="1938.6781" y1="2125.3748" x2="1510.3635" y2="2645.1746">
				<stop  offset="0" style="stop-color:#E1473D"/>
				<stop  offset="1" style="stop-color:#E9605A"/>
			</linearGradient>
			<path style="fill:url(#SVGID_00000026868597314850437650000006632911374168127375_);" d="M2131.111,2024.498l-21.01-60.404
				c-2.526-7.262-0.805-15.382,4.596-20.855c10.767-10.91,17.183-26.122,16.423-42.83c-1.34-29.465-25.411-53.355-54.884-54.487
				c-32.617-1.253-59.454,24.817-59.454,57.156c0,17.94,8.263,33.945,21.189,44.429c6.704,5.438,9.459,14.374,6.623,22.527
				l-18.944,54.464c-4.607,13.245,5.227,27.079,19.251,27.079h66.958C2125.883,2051.576,2135.718,2037.743,2131.111,2024.498z"/>
		</g>
		<g>
			<g>
				<rect x="2571.614" y="2814.93" style="fill:#7D97F4;" width="31.212" height="337.543"/>
				<path style="fill:#7D97F4;" d="M2723.907,3158.98h-273.375v-13.991c0-3.494,2.832-6.326,6.326-6.326h260.23
					c3.766,0,6.818,3.053,6.818,6.819V3158.98z"/>
				<path style="fill:#7D97F4;" d="M2775.604,2802.479c0,19.62-16.052,35.672-35.673,35.672h-293.943
					c-19.62,0-35.673-16.052-35.673-35.672v-32.255c0-19.62,16.053-35.672,35.673-35.672h293.943
					c19.62,0,35.673,16.053,35.673,35.672V2802.479z"/>
			</g>
			<g>
				
					<linearGradient id="SVGID_00000016077005814651289860000012139789731373083312_" gradientUnits="userSpaceOnUse" x1="851.1011" y1="3027.9211" x2="796.0023" y2="3136.2822" gradientTransform="matrix(-1 0 0 1 3188.5061 0)">
					<stop  offset="0" style="stop-color:#09005D"/>
					<stop  offset="1" style="stop-color:#1A0F91"/>
				</linearGradient>
				<path style="fill:url(#SVGID_00000016077005814651289860000012139789731373083312_);" d="M2413.373,3092.674
					c0,0-89.128,64.244-73.652,107.404c0,0,97.518-42.075,109.3-75.218c11.781-33.143-1.993-47.782-1.993-47.782L2413.373,3092.674z
					"/>
				
					<linearGradient id="SVGID_00000111871741498039090030000018269180390872431026_" gradientUnits="userSpaceOnUse" x1="746.3267" y1="3071.0442" x2="801.2151" y2="3071.0442" gradientTransform="matrix(-1 0 0 1 3188.5061 0)">
					<stop  offset="0" style="stop-color:#FEBBBA"/>
					<stop  offset="1" style="stop-color:#FF928E"/>
				</linearGradient>
				<path style="fill:url(#SVGID_00000111871741498039090030000018269180390872431026_);" d="M2426.766,3038.833l14.573,42.132
					c2.199,6.358,0,13.598-5.688,17.191c-2.848,1.799-6.74,3.463-12.061,4.67c-7.508,1.702-15.258-1.766-18.868-8.564
					l-17.433-32.827L2426.766,3038.833z"/>
				
					<linearGradient id="SVGID_00000000209149082899534700000003227207360305917061_" gradientUnits="userSpaceOnUse" x1="670.371" y1="2925.8127" x2="903.6216" y2="2598.8943" gradientTransform="matrix(-1 0 0 1 3188.5061 0)">
					<stop  offset="0" style="stop-color:#09005D"/>
					<stop  offset="1" style="stop-color:#1A0F91"/>
				</linearGradient>
				<path style="fill:url(#SVGID_00000000209149082899534700000003227207360305917061_);" d="M2568.592,2659.613
					c0,0-183.066,31.728-261.594,104.271c-78.529,72.543,72.078,303.946,72.078,303.946s24.676-0.152,54.578-25.783
					c0,0-89.299-174.035-12.339-224.788c86.521-57.058,186.231-69.908,186.231-69.908l-37.183-82.144L2568.592,2659.613z"/>
				
					<linearGradient id="SVGID_00000174595057903924494280000007733761463699611057_" gradientUnits="userSpaceOnUse" x1="819.1252" y1="3137.4817" x2="628.116" y2="3387.2625" gradientTransform="matrix(-1 0 0 1 3188.5061 0)">
					<stop  offset="0" style="stop-color:#09005D"/>
					<stop  offset="1" style="stop-color:#1A0F91"/>
				</linearGradient>
				<path style="fill:url(#SVGID_00000174595057903924494280000007733761463699611057_);" d="M2355.207,3176.208
					c19.604-9.075,75.103-47.919,84.458-49.633c9.355-1.714,25.582,9.28,25.582,9.28s3.946,7.099-0.274,19.48
					c-13.027,15.762-41.95,45.809-80.833,57.005c-28.602,8.236-48.608,0.559-61.068-8.426
					C2329.926,3193.473,2342.151,3182.252,2355.207,3176.208z"/>
				
					<linearGradient id="SVGID_00000010989403859427645260000015805168015572045187_" gradientUnits="userSpaceOnUse" x1="723.5339" y1="3191.5789" x2="871.1265" y2="3191.5789" gradientTransform="matrix(-1 0 0 1 3188.5061 0)">
					<stop  offset="0" style="stop-color:#53D8FF"/>
					<stop  offset="1" style="stop-color:#3840F7"/>
				</linearGradient>
				<path style="fill:url(#SVGID_00000010989403859427645260000015805168015572045187_);" d="M2384.139,3212.339
					c38.883-11.196,67.806-41.243,80.833-57.005c-2.854,8.366-9.431,19.142-23.489,31.778
					c-34.862,31.333-101.445,42.628-115.621,40.451c-11.361-1.744-10.29-12.23-2.791-23.65
					C2335.531,3212.898,2355.537,3220.575,2384.139,3212.339z"/>
				
					<linearGradient id="SVGID_00000086674003676512089220000009338077899360485793_" gradientUnits="userSpaceOnUse" x1="706.6358" y1="3121.6978" x2="758.1499" y2="3121.6978" gradientTransform="matrix(-1 0 0 1 3188.5061 0)">
					<stop  offset="0" style="stop-color:#FEBBBA"/>
					<stop  offset="1" style="stop-color:#FF928E"/>
				</linearGradient>
				<path style="fill:url(#SVGID_00000086674003676512089220000009338077899360485793_);" d="M2481.87,3108.433
					c-0.22,5.401-11.259,23.924-17.711,34.316c-3.066,4.939-8.438,7.956-14.25,7.971c-3.687,0.01-7.925-0.311-11.774-1.416
					c-5.778-1.659-9.022-7.813-7.332-13.583l12.607-43.048L2481.87,3108.433z"/>
				
					<linearGradient id="SVGID_00000171704784401764138090000005030072735206877618_" gradientUnits="userSpaceOnUse" x1="586.2982" y1="3088.7202" x2="599.1547" y2="2651.6035" gradientTransform="matrix(-1 0 0 1 3188.5061 0)">
					<stop  offset="0" style="stop-color:#09005D"/>
					<stop  offset="1" style="stop-color:#1A0F91"/>
				</linearGradient>
				<path style="fill:url(#SVGID_00000171704784401764138090000005030072735206877618_);" d="M2744.81,2604.662
					c0,0,40.656,108.711,0,141.77c-40.656,33.059-137.644,70.28-159.31,136.127c-21.666,65.847-58.433,193.817-107.636,239.138
					c0,0-34.571-3.349-47.508-17.124c0,0,28.023-191.041,46.505-240.059c16.005-42.45,39.587-103.723,84.78-137.969
					c12.937-9.804,10.683-25.332,4.685-40.415l-10.923-27.466L2744.81,2604.662z"/>
				
					<linearGradient id="SVGID_00000166671975173961107010000007153055692096184474_" gradientUnits="userSpaceOnUse" x1="2546.2205" y1="765.0412" x2="3072.137" y2="235.3405" gradientTransform="matrix(-1 0 0 1 3188.5061 0)">
					<stop  offset="0" style="stop-color:#09005D"/>
					<stop  offset="1" style="stop-color:#1A0F91"/>
				</linearGradient>
				<path style="fill:url(#SVGID_00000166671975173961107010000007153055692096184474_);" d="M2320.792,2519.458
					c68.168,4.11,46.927-104.796,45.698-109.128l103.463,73.079c0,0-5.477,58.24-91.498,88.79c-21.763,7.729-41.654,8.07-59.24,4.29
					C2326.714,2554.62,2325.189,2534.996,2320.792,2519.458z"/>
				
					<linearGradient id="SVGID_00000183945503534442541870000013635327774786573705_" gradientUnits="userSpaceOnUse" x1="864.0414" y1="2527.6572" x2="1043.7399" y2="2527.6572" gradientTransform="matrix(-1 0 0 1 3188.5061 0)">
					<stop  offset="0" style="stop-color:#FEBBBA"/>
					<stop  offset="1" style="stop-color:#FF928E"/>
				</linearGradient>
				<path style="fill:url(#SVGID_00000183945503534442541870000013635327774786573705_);" d="M2188.981,2486.679
					c25.403-17.669,54.181,0,54.181,0c33.965,22.213,59.093,31.661,77.63,32.779c4.397,15.538,5.922,35.162-1.577,57.031
					c-38.05-8.179-65.272-35.717-77.101-49.846c-4.258-5.087-11.8-5.971-17.007-1.86c-5.29,4.176-10.426,9.895-9.495,15.915
					c1.837,11.871-11.938,15.644-12.977,11.34c-1.038-4.305,4.712-29.827,4.712-29.827s-27.55,27.704-38.304,38.348
					c-10.754,10.646-24.278,0-24.278,0S2163.579,2504.349,2188.981,2486.679z"/>
				
					<linearGradient id="SVGID_00000125585319817978649830000015990278046259629721_" gradientUnits="userSpaceOnUse" x1="781.1608" y1="2312.4531" x2="377.1039" y2="2606.313" gradientTransform="matrix(-1 0 0 1 3188.5061 0)">
					<stop  offset="0" style="stop-color:#09005D"/>
					<stop  offset="1" style="stop-color:#1A0F91"/>
				</linearGradient>
				<path style="fill:url(#SVGID_00000125585319817978649830000015990278046259629721_);" d="M2638.651,2242.143
					c0,0-99.173-39.708-283.738,112.666c0,0-15.417,31.91,1.401,60.313c16.818,28.403,177.063,166.797,199.088,243.544
					c0,0,95.467,31.02,194.197-42.539C2749.6,2616.126,2740.887,2402.529,2638.651,2242.143z"/>
				
					<linearGradient id="SVGID_00000006684456652455374060000016541509637779058841_" gradientUnits="userSpaceOnUse" x1="723.2159" y1="2232.7788" x2="319.1584" y2="2526.6389" gradientTransform="matrix(-1 0 0 1 3188.5061 0)">
					<stop  offset="0" style="stop-color:#09005D"/>
					<stop  offset="1" style="stop-color:#1A0F91"/>
				</linearGradient>
				<path style="fill:url(#SVGID_00000006684456652455374060000016541509637779058841_);" d="M2715.433,2495.62
					c11.513-46.888-105.102-151.419-105.102-151.419l28.321-102.058c0,0,251.809,167.632,187.639,302.437
					c-9.199,19.325-21.417,32.862-35.583,41.914C2770.431,2531.914,2738.118,2506.884,2715.433,2495.62z"/>
				
					<linearGradient id="SVGID_00000050621555096530397660000013427121437963462055_" gradientUnits="userSpaceOnUse" x1="3317.8887" y1="1151.3378" x2="2839.0044" y2="2071.9131">
					<stop  offset="0" style="stop-color:#09005D"/>
					<stop  offset="1" style="stop-color:#1A0F91"/>
				</linearGradient>
				<path style="fill:url(#SVGID_00000050621555096530397660000013427121437963462055_);" d="M2715.515,2488.793
					c1.238,0,2.364-0.84,2.673-2.098c11.773-47.939-101.129-149.811-105.939-154.126c-1.13-1.012-2.87-0.922-3.892,0.211
					c-1.015,1.134-0.918,2.877,0.211,3.892c1.155,1.033,115.259,103.956,104.268,148.709c-0.362,1.478,0.542,2.97,2.02,3.332
					C2715.074,2488.768,2715.296,2488.793,2715.515,2488.793z"/>
				
					<linearGradient id="SVGID_00000149383586538586039070000010969629250247829131_" gradientUnits="userSpaceOnUse" x1="611.2778" y1="2529.8203" x2="154.8102" y2="3323.0266" gradientTransform="matrix(-1 0 0 1 3188.5061 0)">
					<stop  offset="0" style="stop-color:#FEBBBA"/>
					<stop  offset="1" style="stop-color:#FF928E"/>
				</linearGradient>
				<path style="fill:url(#SVGID_00000149383586538586039070000010969629250247829131_);" d="M2538.805,2491.584
					c0,0,138.262,53.68,172.01,13.303c2.289-2.739,3.781-5.856,4.618-9.268c22.685,11.264,54.998,36.294,75.275,90.874
					c-72.718,46.466-197.012-25.85-230.621-47.169c-5.529-3.507-12.161-4.737-18.572-3.408c-12.963,2.688-35.356,6.641-47.433,4.78
					c-17.669-2.722-43.046,59.601-71.682,40.378C2422.399,2581.075,2446.921,2472.744,2538.805,2491.584z"/>
				
					<linearGradient id="SVGID_00000062168923979540821580000006118380227874283710_" gradientUnits="userSpaceOnUse" x1="3652.8738" y1="21.8513" x2="2788.2666" y2="1683.9147">
					<stop  offset="0" style="stop-color:#09005D"/>
					<stop  offset="1" style="stop-color:#1A0F91"/>
				</linearGradient>
				<path style="fill:url(#SVGID_00000062168923979540821580000006118380227874283710_);" d="M2405.951,2291.05
					c-18.827,15.713-27.866,28.853-25.77,49.848c34.668,18.562,77.946,23.402,125.9,20.794
					c25.256-31.896,47.569-77.238,44.228-116.85c-9.413-11.454-49.746-13.617-76.794-2.7L2405.951,2291.05z"/>
				
					<linearGradient id="SVGID_00000175309670330587073970000013543592843522594195_" gradientUnits="userSpaceOnUse" x1="695.993" y1="2255.6277" x2="811.8106" y2="2255.6277" gradientTransform="matrix(-1 0 0 1 3188.5061 0)">
					<stop  offset="0" style="stop-color:#FEBBBA"/>
					<stop  offset="1" style="stop-color:#FF928E"/>
				</linearGradient>
				<path style="fill:url(#SVGID_00000175309670330587073970000013543592843522594195_);" d="M2430.356,2188.604l61.061,77.286
					c4.847,5.876-7.761,39.271-11.114,46.111c-6.776,13.823,1.287,11.217-34.372,8.434c-10.608-0.828-30.467-9.72-35.1-19.298
					l-34.136-70.567L2430.356,2188.604z"/>
				<g>
					
						<linearGradient id="SVGID_00000107555455044479422790000011507466199986536872_" gradientUnits="userSpaceOnUse" x1="1080.438" y1="596.6362" x2="931.3893" y2="793.8155" gradientTransform="matrix(-0.9683 -0.2499 -0.2499 0.9683 3559.759 1820.1976)">
						<stop  offset="0" style="stop-color:#FEBBBA"/>
						<stop  offset="1" style="stop-color:#FF928E"/>
					</linearGradient>
					<path style="fill:url(#SVGID_00000107555455044479422790000011507466199986536872_);" d="M2336.367,2119.773
						c-0.491,1.903,11.444,131.279,11.444,131.279l73.727-8.385l6.906-124.302
						C2428.444,2118.365,2344.59,2087.919,2336.367,2119.773z"/>
					
						<linearGradient id="SVGID_00000169537114991040294280000004544963042298244742_" gradientUnits="userSpaceOnUse" x1="966.6054" y1="644.201" x2="1144.645" y2="644.201" gradientTransform="matrix(-0.9683 -0.2499 -0.2499 0.9683 3559.759 1820.1976)">
						<stop  offset="0" style="stop-color:#09005D"/>
						<stop  offset="1" style="stop-color:#1A0F91"/>
					</linearGradient>
					<path style="fill:url(#SVGID_00000169537114991040294280000004544963042298244742_);" d="M2409.242,2144.125l1.489,65.72
						c0.019,0.843-0.072,1.663-0.281,2.48c-1.283,4.998-6.957,21.869-23.865,15.011c-15.342-6.223-29.435-11.674-39.799-9.707
						c-4.654,0.883-7.871,5.146-7.434,9.862c1.087,11.755,4.028,38.197,10.087,60.78c1.229,4.583,5.789,7.419,10.462,6.596
						c14.081-2.481,43.631-8.542,66.261-18.988c3.067-1.416,5.124-4.356,5.35-7.725c1.105-16.428,4.648-66.347,7.787-80.105
						c2.946-12.913,19.857-18.986,27.14-21.031c2.387-0.67,4.377-2.275,5.542-4.464c4.117-7.738,10.625-25.976-12.133-36.24
						c-4.763-2.148-6.782-7.759-4.49-12.455c4.563-9.348,7.667-24.036-9.692-34.222c-17.644-10.353-32.589-1.981-40.954,5.237
						c-3.383,2.918-8.292,2.881-11.786,0.097c-1.989-1.585-4.694-2.33-8.248-0.623c-4.789,2.301-10.516-0.254-12.309-5.256
						c-3.443-9.609-11.427-20.374-29.936-19.256c-32.843,1.983-40.415,37.305-34.208,59.172
						c6.207,21.867,41.693,17.693,60.214,9.045c14.082-6.575,30.283,3.714,37.24,9.024
						C2407.883,2138.758,2409.179,2141.353,2409.242,2144.125z"/>
					
						<linearGradient id="SVGID_00000134970674224022147450000018106773239921111999_" gradientUnits="userSpaceOnUse" x1="862.1418" y1="752.7878" x2="981.6893" y2="630.1353" gradientTransform="matrix(-0.9683 -0.2499 -0.2499 0.9683 3559.759 1820.1976)">
						<stop  offset="0" style="stop-color:#FEBBBA"/>
						<stop  offset="1" style="stop-color:#FF928E"/>
					</linearGradient>
					<path style="fill:url(#SVGID_00000134970674224022147450000018106773239921111999_);" d="M2439.602,2211.982
						c0,0-9.18-38.566,5.434-46.16c14.613-7.594,34.262-0.663,26.871,25.735C2462.714,2224.392,2439.602,2211.982,2439.602,2211.982
						z"/>
				</g>
			</g>
			<g>
				
					<linearGradient id="SVGID_00000000906521786864349450000005336124729931249812_" gradientUnits="userSpaceOnUse" x1="12902.3594" y1="3216.6318" x2="12668.6309" y2="3280.6907" gradientTransform="matrix(0.9988 -0.0494 0.0494 0.9988 -10528.5889 -55.0328)">
					<stop  offset="0" style="stop-color:#09005D"/>
					<stop  offset="1" style="stop-color:#1A0F91"/>
				</linearGradient>
				<path style="fill:url(#SVGID_00000000906521786864349450000005336124729931249812_);" d="M2467.972,2597.439
					c-0.222,0.011-0.444,0.017-0.667,0.015l-290.092-0.317c-7.171-0.006-12.978-5.825-12.971-12.997
					c0.007-7.174,5.848-13.1,13-12.971l290.092,0.316c7.171,0.006,12.978,5.826,12.971,12.997
					C2480.296,2591.432,2474.833,2597.1,2467.972,2597.439z"/>
				
					<linearGradient id="SVGID_00000108275735399930576610000002940063215042143908_" gradientUnits="userSpaceOnUse" x1="12687.9688" y1="2369.3721" x2="12522.1279" y2="2544.6555" gradientTransform="matrix(1 0 0 1 -10487.1201 0)">
					<stop  offset="0" style="stop-color:#09005D"/>
					<stop  offset="1" style="stop-color:#1A0F91"/>
				</linearGradient>
				<path style="fill:url(#SVGID_00000108275735399930576610000002940063215042143908_);" d="M1916.433,2334.054h241.59
					c17.822,0,34.044,10.285,41.646,26.404l111.687,236.826h-300.233c-11.485,0-21.804-7.017-26.025-17.699l-86.609-219.147
					C1893.486,2347.776,1902.818,2334.054,1916.433,2334.054z"/>
				
					<linearGradient id="SVGID_00000109008759408684182900000013236774331574596238_" gradientUnits="userSpaceOnUse" x1="1088.0435" y1="3658.9128" x2="920.3008" y2="3939.6482" gradientTransform="matrix(0.9041 -0.4273 0.4273 0.9041 -451.2205 -492.4438)">
					<stop  offset="0" style="stop-color:#FF928E"/>
					<stop  offset="1" style="stop-color:#FE7062"/>
				</linearGradient>
				<path style="fill:url(#SVGID_00000109008759408684182900000013236774331574596238_);" d="M2140.871,2544.39l-35.421-74.943
					c17.274-14.31,23.378-38.995,13.352-60.208c-11.87-25.114-41.85-35.85-66.964-23.98c-25.114,11.87-35.85,41.85-23.98,66.964
					c10.5,22.217,35.173,33.168,58.113,27.185l10.123,21.418l-11.439,5.406c-4.29,2.028-6.124,7.148-4.096,11.438l0.134,0.282
					c2.027,4.29,7.148,6.124,11.438,4.096l11.439-5.406l9.344,19.77l-17.652,8.343c-4.29,2.027-6.124,7.148-4.096,11.438
					l0.134,0.282c2.027,4.29,7.148,6.123,11.438,4.096l17.652-8.343l0.712,1.506c2.556,5.407,9.011,7.719,14.419,5.163l0.188-0.089
					C2141.115,2556.252,2143.427,2549.797,2140.871,2544.39z M2045.275,2443.99c-7.323-15.494-0.699-33.992,14.795-41.315
					c15.494-7.323,33.992-0.699,41.315,14.795c7.323,15.494,0.699,33.992-14.795,41.315
					C2071.095,2466.109,2052.598,2459.485,2045.275,2443.99z"/>
			</g>
			<g>
				<g>
					<path style="fill:#7D97F4;" d="M1955.6,3219.631c-1.607,0-3.24-0.311-4.811-0.964c-6.184-2.576-9.042-9.518-6.381-15.505
						l255.663-575.391c2.659-5.985,9.825-8.749,16.015-6.177c6.184,2.576,9.042,9.518,6.381,15.505l-255.663,575.392
						C1964.82,3216.955,1960.324,3219.631,1955.6,3219.631z"/>
					<path style="fill:#7D97F4;" d="M2243.615,3219.631c-4.724,0-9.22-2.674-11.204-7.141l-255.662-575.392
						c-2.661-5.987,0.196-12.929,6.381-15.505c6.18-2.575,13.353,0.188,16.015,6.177l255.663,575.391
						c2.661,5.987-0.196,12.929-6.381,15.505C2246.857,3219.32,2245.222,3219.631,2243.615,3219.631z"/>
					<path style="fill:#7D97F4;" d="M2746.986,3219.631c-1.607,0-3.24-0.311-4.812-0.964c-6.184-2.576-9.041-9.518-6.381-15.505
						l255.663-575.391c2.661-5.985,9.823-8.749,16.015-6.177c6.184,2.576,9.041,9.518,6.381,15.505l-255.662,575.392
						C2756.207,3216.955,2751.71,3219.631,2746.986,3219.631z"/>
					<path style="fill:#7D97F4;" d="M3035,3219.631c-4.724,0-9.22-2.674-11.204-7.141l-255.663-575.392
						c-2.661-5.987,0.196-12.929,6.38-15.505c6.18-2.575,13.353,0.188,16.016,6.177l255.663,575.391
						c2.661,5.987-0.197,12.929-6.381,15.505C3038.241,3219.32,3036.607,3219.631,3035,3219.631z"/>
				</g>
				<path style="fill:#7D97F4;" d="M3064.987,2610.006c0.652-3.774-0.236-7.677-2.421-10.642c-2.185-2.965-5.438-4.682-8.873-4.682
					H1890.614c-4.515,0-8.719,2.576-11.152,6.835c-2.433,4.259-2.759,9.612-0.865,14.201l12.604,30.54
					c2.886,6.994,9.14,11.472,16.021,11.472h1138.491c6.401,0,11.903-5.082,13.119-12.118L3064.987,2610.006z"/>
			</g>
		</g>
	</g>
</g>
</svg>
