<svg xmlns="http://www.w3.org/2000/svg" xmlns:xlink="http://www.w3.org/1999/xlink" width="1080" zoomAndPan="magnify" viewBox="0 0 810 809.999993" height="1080" preserveAspectRatio="xMidYMid meet" version="1.2"><defs><clipPath id="006ffc65c2"><path d="M 38.25 0 L 771.75 0 C 781.894531 0 791.625 4.03125 798.796875 11.203125 C 805.96875 18.375 810 28.105469 810 38.25 L 810 771.75 C 810 781.894531 805.96875 791.625 798.796875 798.796875 C 791.625 805.96875 781.894531 810 771.75 810 L 38.25 810 C 28.105469 810 18.375 805.96875 11.203125 798.796875 C 4.03125 791.625 0 781.894531 0 771.75 L 0 38.25 C 0 28.105469 4.03125 18.375 11.203125 11.203125 C 18.375 4.03125 28.105469 0 38.25 0 Z M 38.25 0 "/></clipPath><clipPath id="47a04faa8e"><path d="M 163.613281 123.5625 L 325.757812 123.5625 L 325.757812 285.703125 L 163.613281 285.703125 Z M 163.613281 123.5625 "/></clipPath><clipPath id="11891d6bc6"><path d="M 244.6875 123.5625 C 199.910156 123.5625 163.613281 159.859375 163.613281 204.632812 C 163.613281 249.40625 199.910156 285.703125 244.6875 285.703125 C 289.460938 285.703125 325.757812 249.40625 325.757812 204.632812 C 325.757812 159.859375 289.460938 123.5625 244.6875 123.5625 Z M 244.6875 123.5625 "/></clipPath></defs><g id="2a676251a8"><g clip-rule="nonzero" clip-path="url(#006ffc65c2)"><rect x="0" width="810" y="0" height="809.999993" style="fill:#2563eb;fill-opacity:1;stroke:none;"/></g><g style="fill:#ffffff;fill-opacity:1;"><g transform="translate(23.653804, 703.749958)"><path style="stroke:none" d="M 399.09375 -349.703125 L 399.09375 0 L 302.90625 0 L 302.90625 -41.59375 C 289.46875 -26.425781 273.429688 -14.832031 254.796875 -6.8125 C 236.160156 1.195312 216.007812 5.203125 194.34375 5.203125 C 148.414062 5.203125 112.015625 -8.007812 85.140625 -34.4375 C 58.273438 -60.875 44.84375 -100.09375 44.84375 -152.09375 L 44.84375 -349.703125 L 146.25 -349.703125 L 146.25 -167.046875 C 146.25 -110.710938 169.863281 -82.546875 217.09375 -82.546875 C 241.363281 -82.546875 260.863281 -90.453125 275.59375 -106.265625 C 290.332031 -122.085938 297.703125 -145.597656 297.703125 -176.796875 L 297.703125 -349.703125 Z M 399.09375 -349.703125 "/></g></g><g style="fill:#ffffff;fill-opacity:1;"><g transform="translate(470.199589, 703.749958)"><path style="stroke:none" d="M 272.34375 -16.90625 C 262.382812 -9.53125 250.144531 -4 235.625 -0.3125 C 221.101562 3.363281 205.828125 5.203125 189.796875 5.203125 C 148.203125 5.203125 116.03125 -5.410156 93.28125 -26.640625 C 70.53125 -47.878906 59.15625 -79.082031 59.15625 -120.25 L 59.15625 -263.90625 L 5.203125 -263.90625 L 5.203125 -341.90625 L 59.15625 -341.90625 L 59.15625 -427.046875 L 160.546875 -427.046875 L 160.546875 -341.90625 L 247.65625 -341.90625 L 247.65625 -263.90625 L 160.546875 -263.90625 L 160.546875 -121.546875 C 160.546875 -106.816406 164.335938 -95.441406 171.921875 -87.421875 C 179.503906 -79.410156 190.226562 -75.40625 204.09375 -75.40625 C 220.132812 -75.40625 233.785156 -79.738281 245.046875 -88.40625 Z M 272.34375 -16.90625 "/></g></g><g clip-rule="nonzero" clip-path="url(#47a04faa8e)"><g clip-rule="nonzero" clip-path="url(#11891d6bc6)"><path style=" stroke:none;fill-rule:nonzero;fill:#ffffff;fill-opacity:1;" d="M 163.613281 123.5625 L 325.757812 123.5625 L 325.757812 285.703125 L 163.613281 285.703125 Z M 163.613281 123.5625 "/></g></g></g></svg>